<svg aria-hidden="true" style="width:0;height:0;position:absolute;overflow:hidden" xmlns="http://www.w3.org/2000/svg"><defs><symbol id="icon-mobil-close" viewBox="0 0 32 32"><path d="M31.439 3.166 28.273 0 15.72 12.553 3.167 0 .001 3.166l12.553 12.553L.001 28.272l3.166 3.166L15.72 18.885l12.553 12.553 3.166-3.166-12.553-12.553L31.439 3.166z"/></symbol><symbol id="icon-fb" viewBox="0 0 32 32"><path d="M13.912 11.099v2.203h-1.613v2.693h1.613V24h3.315v-8.005h2.224s.21-1.291.31-2.704h-2.522v-1.84c0-.277.362-.646.72-.646h1.805V8h-2.456c-3.478 0-3.397 2.696-3.397 3.099z"/><path d="M6.4 3.2a3.2 3.2 0 0 0-3.2 3.2v19.2a3.2 3.2 0 0 0 3.2 3.2h19.2a3.2 3.2 0 0 0 3.2-3.2V6.4a3.2 3.2 0 0 0-3.2-3.2H6.4zm0-3.2h19.2A6.403 6.403 0 0 1 32 6.401v19.2a6.402 6.402 0 0 1-6.4 6.4H6.4a6.4 6.4 0 0 1-6.401-6.4v-19.2A6.4 6.4 0 0 1 6.4 0z"/></symbol><symbol id="icon-instagram" viewBox="0 0 32 32"><path d="M9.404.096C11.11.017 11.654 0 16 0s4.89.019 6.595.096 2.868.349 3.887.743a7.88 7.88 0 0 1 2.833 1.847 7.803 7.803 0 0 1 1.844 2.832c.396 1.018.666 2.182.745 3.884.079 1.709.096 2.253.096 6.598 0 4.346-.019 4.89-.096 6.596-.077 1.702-.349 2.865-.745 3.884a7.85 7.85 0 0 1-1.844 2.835 7.832 7.832 0 0 1-2.833 1.844c-1.018.396-2.182.666-3.884.745C20.89 31.983 20.346 32 16 32s-4.89-.019-6.596-.096c-1.702-.077-2.865-.349-3.884-.745a7.85 7.85 0 0 1-2.835-1.844 7.846 7.846 0 0 1-1.846-2.833C.445 25.464.174 24.3.096 22.598.017 20.889 0 20.345 0 16c0-4.346.019-4.89.096-6.595s.349-2.868.743-3.887a7.854 7.854 0 0 1 1.847-2.833A7.843 7.843 0 0 1 5.518.839C6.536.445 7.7.174 9.402.096h.001zm13.061 2.88c-1.687-.077-2.193-.093-6.465-.093s-4.778.016-6.465.093c-1.561.071-2.407.332-2.972.551a4.972 4.972 0 0 0-1.84 1.196 4.966 4.966 0 0 0-1.196 1.84c-.22.564-.48 1.411-.551 2.972-.077 1.687-.093 2.193-.093 6.465s.016 4.778.093 6.465c.071 1.561.332 2.407.551 2.972a4.962 4.962 0 0 0 1.196 1.84c.516.531 1.146.94 1.84 1.196.564.22 1.411.48 2.972.551 1.687.077 2.192.093 6.465.093s4.778-.016 6.465-.093c1.561-.071 2.407-.332 2.972-.551a4.972 4.972 0 0 0 1.84-1.196 4.962 4.962 0 0 0 1.196-1.84c.22-.564.48-1.411.551-2.972.077-1.687.093-2.193.093-6.465s-.016-4.778-.093-6.465c-.071-1.561-.332-2.407-.551-2.972a4.972 4.972 0 0 0-1.196-1.84 4.974 4.974 0 0 0-1.84-1.196c-.564-.22-1.411-.48-2.972-.551zm-8.509 17.956a5.335 5.335 0 0 0 6.488-1.962 5.342 5.342 0 0 0-2.646-7.995 5.34 5.34 0 0 0-7.078 4.243 5.334 5.334 0 0 0 3.236 5.714zm-3.771-10.747A8.232 8.232 0 0 1 16 7.776a8.23 8.23 0 0 1 7.598 5.077 8.21 8.21 0 0 1 0 6.294 8.225 8.225 0 1 1-13.413-8.962zm15.863-1.184a1.958 1.958 0 0 0 .611-1.386 1.953 1.953 0 0 0-.569-1.403 1.948 1.948 0 0 0-1.403-.569 1.945 1.945 0 1 0 1.363 3.36z"/></symbol><symbol id="icon-map" viewBox="0 0 32 32"><path d="M16 .657c-5.303 0-9.6 4.28-9.6 9.581 0 9.166 9.6 21.12 9.6 21.12s9.6-11.956 9.6-21.12c0-5.299-4.297-9.581-9.6-9.581zm0 14.882a5.186 5.186 0 0 1-5.184-5.184A5.186 5.186 0 0 1 16 5.171a5.186 5.186 0 0 1 5.184 5.184A5.186 5.186 0 0 1 16 15.539z"/></symbol><symbol id="icon-tel" viewBox="0 0 32 32"><path d="M22 0a3.602 3.602 0 0 1 3.6 3.6v24.8A3.602 3.602 0 0 1 22 32H10a3.602 3.602 0 0 1-3.6-3.6V3.6A3.602 3.602 0 0 1 10 0h12zm0 2.4H10a1.195 1.195 0 0 0-1.2 1.2v24.8c0 .662.538 1.2 1.2 1.2h12a1.206 1.206 0 0 0 1.2-1.2V3.6A1.2 1.2 0 0 0 22 2.4zm-4.002 22.4a1.203 1.203 0 0 1 .852 2.047c-.225.225-.53.352-.848.353l-4 .006a1.203 1.203 0 0 1-.852-2.047c.225-.225.53-.352.848-.353l4-.006z"/></symbol><symbol id="icon-telegram" viewBox="0 0 32 32"><path d="M29.684 2.395a3.555 3.555 0 0 0-1.12.268h-.005c-.342.136-1.968.82-4.44 1.856L15.261 8.25a28405.94 28405.94 0 0 0-12.605 5.311l.074-.029s-.431.142-.881.45a2.436 2.436 0 0 0-.703.68c-.221.324-.398.82-.332 1.332.108.866.67 1.386 1.073 1.673.408.29.797.426.797.426h.01l5.86 1.974c.263.844 1.786 5.85 2.152 7.003.216.689.426 1.12.689 1.448.127.168.276.308.455.421.093.054.192.097.295.127l-.06-.014c.018.005.032.019.046.024.048.013.08.018.142.028.928.281 1.673-.295 1.673-.295l.042-.034 3.46-3.15 5.798 4.448.132.056c1.208.53 2.432.235 3.079-.286a3.128 3.128 0 0 0 .905-1.195l.042-.108 4.481-22.955c.127-.566.16-1.097.019-1.612a2.168 2.168 0 0 0-.937-1.256 2.244 2.244 0 0 0-1.28-.324zm-.121 2.46c-.005.076.01.067-.024.212v.013L25.1 27.796c-.019.032-.052.103-.14.174-.094.074-.168.121-.558-.034l-7.092-5.437-4.284 3.905.9-5.748 11.587-10.8c.478-.444.318-.538.318-.538.034-.545-.721-.16-.721-.16L10.499 18.21l-.005-.024-7.021-2.366a.534.534 0 0 0 .036-.014l.038-.019.037-.013s6.253-2.635 12.61-5.311c3.182-1.34 6.389-2.69 8.855-3.732a926.54 926.54 0 0 1 4.392-1.836c.098-.038.052-.038.122-.038v-.001z"/></symbol></defs></svg>